<?xml version="1.0" encoding="UTF-8"?><svg  id="Layer_1" data-name="Layer 1" xmlns="http://www.w3.org/2000/svg" viewBox="0 0 130 140"><defs><style>.cls-1{fill:#ddd;}.cls-2{fill:#fff;}.cls-3{fill:#49494c;}</style></defs><path class="cls-1" d="M4.38,43V97a13.79,13.79,0,0,0,6.9,12L58.1,136a13.82,13.82,0,0,0,13.8,0l46.82-27a13.79,13.79,0,0,0,6.9-12V43A13.79,13.79,0,0,0,118.72,31L71.9,4A13.82,13.82,0,0,0,58.1,4L11.28,31A13.79,13.79,0,0,0,4.38,43Z"/><circle class="cls-2" cx="65" cy="70" r="37.21"/><path class="cls-3" d="M65,31.21A38.74,38.74,0,0,1,103.78,70,37.5,37.5,0,0,1,91.94,97.9a37.47,37.47,0,0,1-27,10.89,38.79,38.79,0,0,1,0-77.58ZM63.59,53.15c.28.91.53,1.74.79,2.57q1.77,5.69,3.55,11.38,2.75,8.79,5.48,17.58c.58,1.85,1.16,3.69,1.72,5.53a.74.74,0,0,1-.08.57,8.91,8.91,0,0,1-3.43,2.54,21.16,21.16,0,0,1-4.82,1.21c-.3,0-.42.14-.36.46.11.63.18,1.26.27,1.88l.57,3.8c0,.26.12.37.4.34a29.85,29.85,0,0,0,5.48-1,16.81,16.81,0,0,0,9.93-7.58,30.69,30.69,0,0,0,3-7c2.16-6.79,4.36-13.57,6.55-20.36l3.72-11.54c0-.11.06-.24.1-.4l-.46,0c-2.76,0-5.52,0-8.28,0-.42,0-.56.16-.65.53q-1.23,4.86-2.48,9.71Q82.33,72,80.12,80.67a3.24,3.24,0,0,1-.13.41,1,1,0,0,1-.22-.44Q78,73.33,76.24,66c-1-4.12-2-8.24-3-12.36-.1-.41-.25-.55-.67-.55-2.82,0-5.64,0-8.46,0ZM45,70.23c0-.8.07-1.6.12-2.4A15.23,15.23,0,0,1,46,63.5a7.39,7.39,0,0,1,1.7-2.75A6.41,6.41,0,0,1,52.54,59a10.15,10.15,0,0,1,6,2.14c.27.21.43.21.64-.09q1.68-2.3,3.39-4.59c.19-.25.18-.41-.07-.58a34.59,34.59,0,0,0-3.1-2,16.51,16.51,0,0,0-10.06-1.59c-6.67.91-10.81,4.84-12.85,11.11a22.64,22.64,0,0,0-.94,8.47,19.53,19.53,0,0,0,2.21,8.33,14.11,14.11,0,0,0,7.64,6.7,18.18,18.18,0,0,0,9.77.77,16.77,16.77,0,0,0,7.21-3.26c.32-.24.4-.42.14-.78-1.15-1.6-2.27-3.23-3.38-4.85-.17-.24-.3-.29-.55-.12a8.4,8.4,0,0,1-.87.53,10.65,10.65,0,0,1-5.64,1.61,6.28,6.28,0,0,1-6.3-4.55A18.74,18.74,0,0,1,45,70.23Z"/></svg>